<svg width="280" height="180" viewBox="0 0 280 180" xmlns="http://www.w3.org/2000/svg">
<rect width="100%" height="100%" fill="#f9fafb"/>
<rect x="0" y="0" width="100%" height="60" fill="#374151"/>
<circle cx="40" cy="30" r="20" fill="white" opacity="0.9"/>
<rect x="70" y="20" width="120" height="8" fill="white" opacity="0.9" rx="4"/>
<rect x="70" y="35" width="80" height="6" fill="white" opacity="0.7" rx="3"/>
<rect x="20" y="80" width="70" height="30" fill="#6b7280" opacity="0.7" rx="4"/>
<rect x="100" y="80" width="70" height="30" fill="#6b7280" opacity="0.7" rx="4"/>
<rect x="180" y="80" width="70" height="30" fill="#6b7280" opacity="0.7" rx="4"/>
<rect x="20" y="120" width="70" height="30" fill="#6b7280" opacity="0.7" rx="4"/>
<rect x="100" y="120" width="70" height="30" fill="#6b7280" opacity="0.7" rx="4"/>
<rect x="180" y="120" width="70" height="30" fill="#6b7280" opacity="0.7" rx="4"/>
<rect x="0" y="150" width="100%" height="30" fill="#6b7280" opacity="0.1"/>
<rect x="20" y="160" width="60" height="6" fill="#374151" opacity="0.8" rx="3"/>
<rect x="90" y="160" width="60" height="6" fill="#374151" opacity="0.8" rx="3"/>
</svg>